<?xml version="1.0" encoding="UTF-8" standalone="no"?><svg id="Instagram" xmlns="http://www.w3.org/2000/svg" width="44.345" height="44.345" viewBox="0 0 44.345 44.345">
  <circle id="Ellipse_2" data-name="Ellipse 2" cx="22.172" cy="22.172" r="22.172" fill="#beaf87"/>
  <path id="Tracé_13" data-name="Tracé 13" d="M218.191,37.52c-3.339,0-3.756.016-5.067.074a9.154,9.154,0,0,0-2.984.579,6.292,6.292,0,0,0-3.595,3.595,9.083,9.083,0,0,0-.572,2.989c-.061,1.317-.074,1.728-.074,5.067s.016,3.756.074,5.067a9.136,9.136,0,0,0,.571,2.981,6.273,6.273,0,0,0,3.595,3.582,9.083,9.083,0,0,0,2.984.571c1.317.063,1.728.074,5.067.074s3.756-.016,5.064-.074a9.07,9.07,0,0,0,2.984-.571,6.273,6.273,0,0,0,3.595-3.595,9.068,9.068,0,0,0,.585-2.981c.061-1.317.074-1.728.074-5.067s-.029-3.756-.074-5.054a9.084,9.084,0,0,0-.572-2.984,6.034,6.034,0,0,0-1.417-2.175,5.971,5.971,0,0,0-2.191-1.425,9.07,9.07,0,0,0-2.984-.579C221.947,37.533,221.528,37.52,218.191,37.52Zm0,2.212c3.279,0,3.671.018,4.967.074a6.787,6.787,0,0,1,2.281.424,3.845,3.845,0,0,1,1.414.919,3.8,3.8,0,0,1,.932,1.414,6.8,6.8,0,0,1,.421,2.281c.058,1.3.071,1.686.071,4.967s-.013,3.671-.074,4.967a6.939,6.939,0,0,1-.432,2.281,4.082,4.082,0,0,1-2.333,2.333,6.8,6.8,0,0,1-2.289.421c-1.317.061-1.691.074-4.978.074s-3.671-.016-4.975-.076a6.99,6.99,0,0,1-2.291-.432,3.787,3.787,0,0,1-1.412-.922,3.687,3.687,0,0,1-.922-1.412,6.984,6.984,0,0,1-.432-2.289c-.045-1.29-.061-1.691-.061-4.962s.016-3.671.061-4.978a6.984,6.984,0,0,1,.419-2.289,4.082,4.082,0,0,1,2.333-2.333,6.745,6.745,0,0,1,2.275-.442c1.3-.045,1.688-.061,4.975-.061Zm0,3.769a6.321,6.321,0,1,0,6.321,6.321A6.321,6.321,0,0,0,218.191,43.5Zm0,10.405a4.1,4.1,0,1,1,4.1-4.1,4.1,4.1,0,0,1-4.1,4.1Zm8.035-10.656a1.475,1.475,0,1,1-1.475-1.472A1.475,1.475,0,0,1,226.226,43.251Z" transform="translate(-196.019 -27.639)" fill="#252526"/>
</svg>
