<?xml version="1.0" encoding="UTF-8" standalone="no"?><svg id="Linkedin" xmlns="http://www.w3.org/2000/svg" width="44.345" height="44.345" viewBox="0 0 44.345 44.345">
  <circle id="Ellipse_4" data-name="Ellipse 4" cx="22.172" cy="22.172" r="22.172" fill="#beaf87"/>
  <path id="Tracé_15" data-name="Tracé 15" d="M566.065,62.483h-3.287V57.326c0-1.227-.024-2.81-1.714-2.81s-1.978,1.338-1.978,2.721v5.246h-3.292v-10.6h3.16v1.443H559a3.472,3.472,0,0,1,3.121-1.712c3.334,0,3.95,2.194,3.95,5.049v5.82ZM552.081,50.431a1.91,1.91,0,1,1,1.353-.559A1.912,1.912,0,0,1,552.081,50.431Zm1.651,12.051h-3.3v-10.6h3.3ZM567.714,43.55H548.781a1.622,1.622,0,0,0-1.641,1.6V64.166a1.622,1.622,0,0,0,1.641,1.6h18.93a1.625,1.625,0,0,0,1.646-1.6V45.151a1.625,1.625,0,0,0-1.646-1.6Z" transform="translate(-536.076 -32.08)" fill="#252526"/>
</svg>
