<?xml version="1.0" encoding="UTF-8" standalone="no"?><svg id="Twitter" xmlns="http://www.w3.org/2000/svg" width="44.345" height="44.345" viewBox="0 0 44.345 44.345">
  <circle id="Ellipse_3" data-name="Ellipse 3" cx="22.172" cy="22.172" r="22.172" fill="#beaf87"/>
  <path id="Tracé_14" data-name="Tracé 14" d="M398.564,46.457a11.251,11.251,0,0,1-3.147.877,5.53,5.53,0,0,0,2.41-3.034,11.349,11.349,0,0,1-3.484,1.317,5.478,5.478,0,0,0-9.481,3.74A5.734,5.734,0,0,0,385,50.61,15.538,15.538,0,0,1,373.7,44.9a5.4,5.4,0,0,0-.737,2.747,5.486,5.486,0,0,0,2.436,4.564,5.452,5.452,0,0,1-2.481-.687v.068a5.483,5.483,0,0,0,4.4,5.378,5.562,5.562,0,0,1-1.443.19,5.483,5.483,0,0,1-1.022-.095,5.5,5.5,0,0,0,5.13,3.808,10.993,10.993,0,0,1-6.8,2.344,12.016,12.016,0,0,1-1.3-.074A15.614,15.614,0,0,0,395.906,50.02c0-.234,0-.469-.018-.7a11.025,11.025,0,0,0,2.728-2.839Z" transform="translate(-362.628 -32.322)" fill="#252526"/>
</svg>
