<?xml version="1.0" encoding="UTF-8" standalone="no"?><svg id="Youtube" xmlns="http://www.w3.org/2000/svg" width="44.345" height="44.345" viewBox="0 0 44.345 44.345">
  <circle id="Ellipse_5" data-name="Ellipse 5" cx="22.172" cy="22.172" r="22.172" fill="#beaf87"/>
  <path id="Tracé_16" data-name="Tracé 16" d="M733.737,54.01a3.252,3.252,0,0,0-2.265-2.265c-2.028-.545-10.192-.545-10.192-.545s-8.141,0-10.189.545a3.252,3.252,0,0,0-2.265,2.265,35.151,35.151,0,0,0,0,12.568,3.255,3.255,0,0,0,2.265,2.265c2.025.545,10.189.545,10.189.545s8.143,0,10.192-.545a3.255,3.255,0,0,0,2.265-2.265,36.661,36.661,0,0,0,0-12.568ZM718.675,64.2V56.4L725.47,60.3Z" transform="translate(-699.107 -37.716)" fill="#252526"/>
</svg>
