<?xml version="1.0" encoding="UTF-8" standalone="no"?><svg xmlns="http://www.w3.org/2000/svg" xmlns:xlink="http://www.w3.org/1999/xlink" width="160" height="270" viewBox="0 0 160 270">
  <defs>
    <clipPath id="clip-path">
      <rect id="Rectangle_894" data-name="Rectangle 894" width="77" height="77" transform="translate(-0.401 -0.401)" fill="#fff"/>
    </clipPath>
  </defs>
  <g id="_2" data-name="2" transform="translate(-623 -529)">
    <text id="Évaluons_les_opportunités" data-name="Évaluons
les opportunités" transform="translate(703 759)" fill="#252526" font-size="28" font-family="BarlowCondensed-Medium, Barlow Condensed" font-weight="500"><tspan x="-43.582" y="0">Évaluons</tspan><tspan x="-79.016" y="34">les opportunités</tspan></text>
    <g id="numéro" transform="translate(0 4)">
      <g id="Ellipse_81" data-name="Ellipse 81" transform="translate(682 665)" fill="#fff" stroke="#e71f64" stroke-width="2">
        <circle cx="21" cy="21" r="21" stroke="none"/>
        <circle cx="21" cy="21" r="20" fill="none"/>
      </g>
      <text id="_2-2" data-name="2" transform="translate(703 697)" fill="#252526" font-size="28" font-family="BarlowCondensed-Medium, Barlow Condensed" font-weight="500"><tspan x="-5.81" y="0">2</tspan></text>
    </g>
    <g id="Groupe_3677" data-name="Groupe 3677" transform="translate(-4)">
      <circle id="Ellipse_80" data-name="Ellipse 80" cx="60" cy="60" r="60" transform="translate(647 529)" fill="#252526"/>
      <g id="Groupe_3682" data-name="Groupe 3682" transform="translate(669.401 546.843)">
        <g id="Groupe_3681" data-name="Groupe 3681" transform="translate(0 0.559)" clip-path="url(#clip-path)">
          <path id="Tracé_720" data-name="Tracé 720" d="M110.448,99.33c-.7,0-1.371-.007-2.033-.017a1.2,1.2,0,0,1,.018-2.4h.019c.65.01,1.311.017,2,.017a1.2,1.2,0,1,1,0,2.4" transform="translate(-75.063 -68.441)" fill="#fff"/>
          <path id="Tracé_721" data-name="Tracé 721" d="M43.015,31.056a1.232,1.232,0,0,1-.124-.006c-7.5-.767-12.289-2.5-15.077-5.464-2.692-2.859-3.063-6.419-3.063-9.84,0-4.082.567-8.271,4.676-11.256C33.643,1.427,41.042,0,52.711,0a1.2,1.2,0,1,1,0,2.4c-10.984,0-18.139,1.319-21.873,4.031-3.07,2.23-3.686,5.217-3.686,9.315,0,6.173,1.2,11.405,15.985,12.917a1.2,1.2,0,0,1-.121,2.394" transform="translate(-17.326 -0.603)" fill="#fff"/>
          <path id="Tracé_722" data-name="Tracé 722" d="M115.147,48.678a1.2,1.2,0,0,1-.017-2.4c13.478-.2,21.114-2.053,24.03-5.837,2.371-3.077,1.861-7.61.179-14.4a1.2,1.2,0,1,1,2.33-.577c1.547,6.243,2.664,12.2-.608,16.442-3.445,4.47-11.432,6.559-25.9,6.772Z" transform="translate(-79.763 -17.789)" fill="#fff"/>
          <path id="Tracé_723" data-name="Tracé 723" d="M140.507,9.767a1.2,1.2,0,0,1-1.054-.623c-1.586-2.9-5.832-6.743-24.3-6.743a1.2,1.2,0,0,1,0-2.4c15.236,0,23.38,2.464,26.409,7.989a1.2,1.2,0,0,1-1.051,1.777" transform="translate(-79.764 -0.603)" fill="#fff"/>
          <path id="Tracé_724" data-name="Tracé 724" d="M142.65,119.032a1.2,1.2,0,0,1-.555-.136l-8.92-4.655a1.2,1.2,0,0,1,1.11-2.128l6.11,3.188-.733-1.912a1.2,1.2,0,1,1,2.241-.859l1.867,4.872a1.2,1.2,0,0,1-1.121,1.63" transform="translate(-92.77 -78.834)" fill="#fff"/>
          <path id="Tracé_725" data-name="Tracé 725" d="M157.238,53.116a1.2,1.2,0,0,1-.078-2.4c18.586-1.228,18.586-7.828,18.586-13.131,0-5.1-1.023-8.486-6.251-10.731a1.2,1.2,0,0,1,.947-2.206c7.109,3.053,7.7,8.278,7.7,12.937,0,3.621-.426,7.373-3.514,10.287-3.184,3-8.685,4.669-17.314,5.239l-.08,0" transform="translate(-109.227 -17.79)" fill="#fff"/>
          <path id="Tracé_726" data-name="Tracé 726" d="M74.265,104.171a1.2,1.2,0,0,1-1.11-1.656l2.568-6.253a1.2,1.2,0,0,1,2.22.912L76.7,100.205l7.224-4.112a1.2,1.2,0,1,1,1.187,2.086l-10.251,5.835a1.2,1.2,0,0,1-.593.157" transform="translate(-51.145 -67.464)" fill="#fff"/>
          <path id="Tracé_727" data-name="Tracé 727" d="M43.2,146.618a7.829,7.829,0,0,1-3.931-1.03,7.154,7.154,0,0,1,0-12.015,8.019,8.019,0,0,1,7.862,0,7.154,7.154,0,0,1,0,12.015,7.836,7.836,0,0,1-3.931,1.029m0-11.673a5.434,5.434,0,0,0-2.721.7,4.174,4.174,0,0,0-2.08,3.917v.035a4.173,4.173,0,0,0,2.079,3.917,5.625,5.625,0,0,0,5.441,0A4.174,4.174,0,0,0,48,139.6v-.035a4.174,4.174,0,0,0-2.079-3.917,5.435,5.435,0,0,0-2.721-.7" transform="translate(-25.198 -93.383)" fill="#fff"/>
          <path id="Tracé_728" data-name="Tracé 728" d="M9.2,197.088a1.2,1.2,0,0,1-.99-1.877,25.823,25.823,0,0,0,1.186-5.038,58.947,58.947,0,0,1,3.077-11.886c1.981-4.653,4.742-6.808,8.21-6.4,6.342.113,7.932,5.6,9.093,9.611.235.811.458,1.579.7,2.272.428.5,2.19.605,3.491.679,2.572.146,6.453.367,6.432,4.068a3.256,3.256,0,0,1-.947,2.524c-1.7,1.665-5.1,1.443-8.1,1.247a14.821,14.821,0,0,0-2.9-.04,1.162,1.162,0,0,1-.2.033c-4.493.35-6.089-4.41-7.247-7.882a24.557,24.557,0,0,0-.886-2.4,1.2,1.2,0,1,1,2.173-1.018,25.969,25.969,0,0,1,.99,2.664c1.205,3.614,2.313,6.381,4.7,6.254a14.86,14.86,0,0,1,3.527,0c2.124.139,5.335.348,6.264-.564A.859.859,0,0,0,38,188.6c0-.024,0-.047,0-.071.014-1.157-.8-1.486-4.168-1.678-2.206-.126-4.487-.255-5.468-1.92a1.222,1.222,0,0,1-.095-.2c-.29-.8-.538-1.655-.8-2.558-1.37-4.727-2.589-7.83-6.884-7.88a1.219,1.219,0,0,1-.137-.01c-5.546-.7-7.519,9.96-8.695,16.331-.61,3.3-.956,5.065-1.564,5.956a1.2,1.2,0,0,1-.992.523" transform="translate(-5.6 -120.889)" fill="#fff"/>
          <path id="Tracé_729" data-name="Tracé 729" d="M53.22,233.6a1.232,1.232,0,0,1-.2-.017,1.2,1.2,0,0,1-.988-1.38l1.194-7.2a1.2,1.2,0,0,1,2.368.392L54.4,232.6a1.2,1.2,0,0,1-1.182,1" transform="translate(-36.413 -157.402)" fill="#fff"/>
          <path id="Tracé_730" data-name="Tracé 730" d="M193.76,233.6a1.2,1.2,0,0,1-1.175-.96l-1.474-7.2a1.2,1.2,0,0,1,2.351-.481l1.474,7.2a1.2,1.2,0,0,1-1.177,1.441" transform="translate(-133.76 -157.401)" fill="#fff"/>
          <path id="Tracé_731" data-name="Tracé 731" d="M97.2,234.4h-12a1.2,1.2,0,1,1,0-2.4h12a1.2,1.2,0,1,1,0,2.4" transform="translate(-58.8 -163.002)" fill="#fff"/>
          <path id="Tracé_732" data-name="Tracé 732" d="M179.2,146.618a7.832,7.832,0,0,1-3.931-1.029,7.154,7.154,0,0,1,0-12.015,8.019,8.019,0,0,1,7.862,0,7.154,7.154,0,0,1,0,12.015,7.832,7.832,0,0,1-3.931,1.03m0-11.673a5.435,5.435,0,0,0-2.721.7,4.174,4.174,0,0,0-2.079,3.917v.035a4.174,4.174,0,0,0,2.08,3.917,5.625,5.625,0,0,0,5.441,0A4.173,4.173,0,0,0,184,139.6v-.035a4.174,4.174,0,0,0-2.08-3.917,5.434,5.434,0,0,0-2.721-.7" transform="translate(-120.397 -93.383)" fill="#fff"/>
          <path id="Tracé_733" data-name="Tracé 733" d="M111.2,146.618a7.832,7.832,0,0,1-3.931-1.029,7.154,7.154,0,0,1,0-12.015,8.019,8.019,0,0,1,7.862,0,7.154,7.154,0,0,1,0,12.015,7.832,7.832,0,0,1-3.931,1.03m0-11.673a5.435,5.435,0,0,0-2.721.7,4.174,4.174,0,0,0-2.079,3.917v.035a4.174,4.174,0,0,0,2.08,3.917,5.625,5.625,0,0,0,5.441,0A4.173,4.173,0,0,0,116,139.6v-.035a4.174,4.174,0,0,0-2.08-3.917,5.434,5.434,0,0,0-2.721-.7" transform="translate(-72.798 -93.383)" fill="#fff"/>
          <path id="Tracé_734" data-name="Tracé 734" d="M171.195,197.089a1.2,1.2,0,0,1-.992-.523c-.608-.891-.954-2.655-1.564-5.956-1.176-6.372-3.133-17.03-8.695-16.331a1.216,1.216,0,0,1-.137.01c-4.3.051-5.514,3.153-6.884,7.88-.262.9-.509,1.757-.8,2.558a1.22,1.22,0,0,1-.094.2c-.981,1.665-3.262,1.794-5.468,1.92-3.364.191-4.183.521-4.168,1.678,0,.024,0,.047,0,.071a.859.859,0,0,0,.23.736c.929.913,4.14.7,6.264.564a14.844,14.844,0,0,1,3.527,0c.05,0,.1,0,.148,0,2.283,0,3.376-2.719,4.556-6.258a25.966,25.966,0,0,1,.99-2.664A1.2,1.2,0,1,1,160.28,182a24.555,24.555,0,0,0-.886,2.4c-1.158,3.473-2.737,8.232-7.247,7.882a1.16,1.16,0,0,1-.2-.033,14.846,14.846,0,0,0-2.9.04c-3,.2-6.407.418-8.1-1.247a3.256,3.256,0,0,1-.947-2.524c-.021-3.7,3.861-3.922,6.432-4.068,1.3-.074,3.062-.174,3.491-.679.245-.692.467-1.461.7-2.272,1.162-4.01,2.752-9.5,9.093-9.611,3.469-.408,6.23,1.745,8.21,6.4A58.944,58.944,0,0,1,171,190.174a25.824,25.824,0,0,0,1.186,5.038,1.2,1.2,0,0,1-.99,1.877" transform="translate(-97.992 -120.89)" fill="#fff"/>
          <path id="Tracé_735" data-name="Tracé 735" d="M137.2,234.4h-12a1.2,1.2,0,1,1,0-2.4h12a1.2,1.2,0,1,1,0,2.4" transform="translate(-86.799 -163.002)" fill="#fff"/>
          <path id="Tracé_736" data-name="Tracé 736" d="M92.747,186.595a1.2,1.2,0,0,1-1.182-1c-.818-4.935.782-9.116,4.389-11.47a12.012,12.012,0,0,1,12.792,0c3.607,2.356,5.206,6.536,4.387,11.468a1.2,1.2,0,0,1-2.368-.393c.665-4.008-.518-7.227-3.332-9.066a9.681,9.681,0,0,0-10.168,0c-2.814,1.837-4,5.058-3.334,9.068a1.2,1.2,0,0,1-.988,1.38,1.235,1.235,0,0,1-.2.016" transform="translate(-63.948 -121.196)" fill="#fff"/>
        </g>
      </g>
    </g>
  </g>
</svg>
