<?xml version="1.0" encoding="UTF-8" standalone="no"?><svg xmlns="http://www.w3.org/2000/svg" xmlns:xlink="http://www.w3.org/1999/xlink" width="120" height="270" viewBox="0 0 120 270">
  <defs>
    <clipPath id="clip-path">
      <rect id="Rectangle_893" data-name="Rectangle 893" width="94" height="94" fill="#fff"/>
    </clipPath>
  </defs>
  <g id="_4" data-name="4" transform="translate(-643 -529)">
    <text id="Réussissons_ensemble" data-name="Réussissons
ensemble" transform="translate(703 759)" fill="#252526" font-size="28" font-family="BarlowCondensed-Medium, Barlow Condensed" font-weight="500"><tspan x="-59.752" y="0">Réussissons</tspan><tspan x="-46.886" y="34">ensemble</tspan></text>
    <g id="numéro" transform="translate(0 4)">
      <g id="Ellipse_81" data-name="Ellipse 81" transform="translate(682 665)" fill="#fff" stroke="#e71f64" stroke-width="2">
        <circle cx="21" cy="21" r="21" stroke="none"/>
        <circle cx="21" cy="21" r="20" fill="none"/>
      </g>
      <text id="_4-2" data-name="4" transform="translate(703 697)" fill="#252526" font-size="28" font-family="BarlowCondensed-Medium, Barlow Condensed" font-weight="500"><tspan x="-6.16" y="0">4</tspan></text>
    </g>
    <g id="Groupe_3677" data-name="Groupe 3677" transform="translate(-4)">
      <circle id="Ellipse_80" data-name="Ellipse 80" cx="60" cy="60" r="60" transform="translate(647 529)" fill="#e71f64"/>
      <g id="Groupe_3680" data-name="Groupe 3680" transform="translate(659.548 538.548)">
        <g id="Groupe_3679" data-name="Groupe 3679" transform="translate(0.452 0.452)" clip-path="url(#clip-path)">
          <path id="Tracé_706" data-name="Tracé 706" d="M97.875,68.054H89.683a1.49,1.49,0,0,1-1.15-.543C83.19,61.023,80,50.089,80,38.261a50.251,50.251,0,0,1,6.139-23.19C89.91,8.139,94.3,4,97.875,4a1.49,1.49,0,0,1,0,2.979c-1.9,0-5.563,2.977-9.119,9.515a47.182,47.182,0,0,0-5.777,21.767c0,10.827,2.764,20.777,7.421,26.813h7.476a1.49,1.49,0,0,1,0,2.979" transform="translate(-50.728 -3.03)" fill="#fff"/>
          <path id="Tracé_707" data-name="Tracé 707" d="M133.683,68.054H125.49a1.49,1.49,0,0,1,0-2.979h7.476c4.657-6.036,7.421-15.986,7.421-26.813a47.182,47.182,0,0,0-5.777-21.767c-3.556-6.538-7.219-9.515-9.119-9.515a1.49,1.49,0,0,1,0-2.979c3.578,0,7.965,4.139,11.736,11.071a50.25,50.25,0,0,1,6.139,23.19c0,11.828-3.19,22.762-8.533,29.25a1.49,1.49,0,0,1-1.15.543" transform="translate(-78.342 -3.03)" fill="#fff"/>
          <path id="Tracé_708" data-name="Tracé 708" d="M110.252,76.867a10.087,10.087,0,0,1-7.085-2.9,10.559,10.559,0,0,1-.681-14.332,1.49,1.49,0,0,1,2.274,1.925,7.579,7.579,0,0,0,.486,10.273A7.141,7.141,0,0,0,115.5,71.6a7.488,7.488,0,0,0,2.017-5.323A7.353,7.353,0,0,0,110.08,59a1.49,1.49,0,0,1-.068-2.979l.234,0a10.468,10.468,0,0,1,7.426,17.617,10.085,10.085,0,0,1-7.182,3.229l-.237,0" transform="translate(-63.283 -35.677)" fill="#fff"/>
          <path id="Tracé_709" data-name="Tracé 709" d="M127.248,153.979H110.49a1.49,1.49,0,1,1,0-2.979h16.758a1.49,1.49,0,1,1,0,2.979" transform="translate(-68.928 -95.287)" fill="#fff"/>
          <path id="Tracé_710" data-name="Tracé 710" d="M61.49,145.972a1.489,1.489,0,0,1-1.49-1.49v-6.67a13.676,13.676,0,0,1,5.864-11.222l3.341-2.324a1.489,1.489,0,1,1,1.7,2.445l-3.341,2.324a10.7,10.7,0,0,0-4.585,8.776v4.076l6.7-3.907a1.49,1.49,0,1,1,1.5,2.573l-8.938,5.214a1.491,1.491,0,0,1-.751.2" transform="translate(-38.176 -78.342)" fill="#fff"/>
          <path id="Tracé_711" data-name="Tracé 711" d="M174.427,145.972a1.49,1.49,0,0,1-.751-.2l-8.938-5.214a1.49,1.49,0,0,1,1.5-2.573l6.7,3.907v-4.076a10.7,10.7,0,0,0-4.586-8.778l-3.34-2.323a1.49,1.49,0,0,1,1.7-2.446l3.34,2.323a13.678,13.678,0,0,1,5.864,11.223v6.669a1.489,1.489,0,0,1-1.49,1.49" transform="translate(-103.445 -78.342)" fill="#fff"/>
          <path id="Tracé_712" data-name="Tracé 712" d="M101.491,186.385a1.492,1.492,0,0,1-1.477-1.695l1.862-13.407a1.49,1.49,0,1,1,2.951.41L102.965,185.1a1.49,1.49,0,0,1-1.474,1.285" transform="translate(-63.279 -107.21)" fill="#fff"/>
          <path id="Tracé_713" data-name="Tracé 713" d="M145.882,183.492a1.489,1.489,0,0,1-1.475-1.294l-1.4-10.514a1.49,1.49,0,0,1,2.954-.392l1.4,10.515a1.49,1.49,0,0,1-1.478,1.685" transform="translate(-90.265 -107.21)" fill="#fff"/>
          <path id="Tracé_714" data-name="Tracé 714" d="M157.963,208.637a1.489,1.489,0,0,1-1.48-1.334,7.055,7.055,0,0,0-7.035-6.324,7.225,7.225,0,0,0-1,.072,1.49,1.49,0,1,1-.417-2.95,10.183,10.183,0,0,1,1.42-.1,10.028,10.028,0,0,1,10,8.991,1.49,1.49,0,0,1-1.325,1.637,1.505,1.505,0,0,1-.158.008" transform="translate(-92.617 -124.784)" fill="#fff"/>
          <path id="Tracé_715" data-name="Tracé 715" d="M128.49,209.691A1.49,1.49,0,0,1,127,208.2a10.1,10.1,0,0,1,8.635-9.954,1.49,1.49,0,0,1,.418,2.95,7.1,7.1,0,0,0-6.073,7,1.49,1.49,0,0,1-1.49,1.49" transform="translate(-80.224 -124.93)" fill="#fff"/>
          <path id="Tracé_716" data-name="Tracé 716" d="M190.421,230.9a1.49,1.49,0,0,1-1.49-1.49c0-5.457-4.792-10.427-10.055-10.427a9.611,9.611,0,0,0-3.914.827,1.49,1.49,0,1,1-1.206-2.724,12.571,12.571,0,0,1,5.12-1.082c6.943,0,13.034,6.265,13.034,13.407a1.49,1.49,0,0,1-1.49,1.49" transform="translate(-109.011 -136.08)" fill="#fff"/>
          <path id="Tracé_717" data-name="Tracé 717" d="M77.828,210.751a1.536,1.536,0,0,1-.259-.023A1.489,1.489,0,0,1,76.359,209a9.66,9.66,0,0,1,9.535-8,1.49,1.49,0,0,1,0,2.979,6.686,6.686,0,0,0-6.6,5.538,1.49,1.49,0,0,1-1.465,1.233" transform="translate(-48.428 -126.666)" fill="#fff"/>
          <path id="Tracé_718" data-name="Tracé 718" d="M37.49,232.151a1.49,1.49,0,0,1-1.49-1.49C36,223.917,42.265,218,49.407,218a12.678,12.678,0,0,1,3.518.5,1.489,1.489,0,1,1-.827,2.862,9.7,9.7,0,0,0-2.691-.382c-5.555,0-10.427,4.524-10.427,9.683a1.49,1.49,0,0,1-1.49,1.49" transform="translate(-23.113 -137.336)" fill="#fff"/>
          <path id="Tracé_719" data-name="Tracé 719" d="M79.392,228.822a1.486,1.486,0,0,1-1.144-.535,9.645,9.645,0,0,1-2.1-7.872,1.49,1.49,0,1,1,2.935.514,6.665,6.665,0,0,0,1.453,5.448,1.49,1.49,0,0,1-1.143,2.444" transform="translate(-48.217 -138.078)" fill="#fff"/>
        </g>
      </g>
    </g>
  </g>
</svg>
